<svg xmlns="http://www.w3.org/2000/svg" viewBox="0 0 720 340" width="720" height="340" role="img"><style>:root{--surface:#fcfcfb;--ink:#0b0b0b;--ink2:#52514e;--muted:#898781;--grid:#e1e0d9;--axis:#c3c2b7;--s1:#2a78d6;--s2:#1baf7a;--s3:#eda100;--s4:#008300;--s5:#4a3aa7;--s6:#e34948;--s7:#e87ba4;--s8:#eb6834}@media (prefers-color-scheme:dark){:root{--surface:#1a1a19;--ink:#fff;--ink2:#c3c2b7;--muted:#898781;--grid:#2c2c2a;--axis:#383835;--s1:#3987e5;--s2:#199e70;--s3:#c98500;--s4:#008300;--s5:#9085e9;--s6:#e66767;--s7:#d55181;--s8:#d95926}}text{font-family:system-ui,-apple-system,'Segoe UI',sans-serif}.t{fill:var(--ink);font-weight:600}.lab{fill:var(--ink2)}.mut{fill:var(--muted)}.val{fill:var(--ink);font-variant-numeric:tabular-nums}</style><rect width="720" height="340" fill="var(--surface)"/><text x="20" y="26" class="t" font-size="15">Decode tok/s vs context depth (p50, per stream)</text><line x1="66" y1="288.0" x2="604" y2="288.0" stroke="var(--grid)" stroke-width="1"/><text x="58" y="292.0" text-anchor="end" class="mut" font-size="10.5">0</text><line x1="66" y1="234.0" x2="604" y2="234.0" stroke="var(--grid)" stroke-width="1"/><text x="58" y="238.0" text-anchor="end" class="mut" font-size="10.5">12</text><line x1="66" y1="180.0" x2="604" y2="180.0" stroke="var(--grid)" stroke-width="1"/><text x="58" y="184.0" text-anchor="end" class="mut" font-size="10.5">25</text><line x1="66" y1="126.0" x2="604" y2="126.0" stroke="var(--grid)" stroke-width="1"/><text x="58" y="130.0" text-anchor="end" class="mut" font-size="10.5">38</text><line x1="66" y1="72.0" x2="604" y2="72.0" stroke="var(--grid)" stroke-width="1"/><text x="58" y="76.0" text-anchor="end" class="mut" font-size="10.5">50</text><text x="66.0" y="306" text-anchor="middle" class="mut" font-size="10.5">8K</text><text x="245.3" y="306" text-anchor="middle" class="mut" font-size="10.5">32K</text><text x="424.7" y="306" text-anchor="middle" class="mut" font-size="10.5">65K</text><text x="604.0" y="306" text-anchor="middle" class="mut" font-size="10.5">98K</text><text x="335" y="326" text-anchor="middle" class="lab" font-size="11.5">prompt depth (tokens)</text><text x="16" y="180" class="lab" font-size="11.5" transform="rotate(-90 16 180)" text-anchor="middle">decode tok/s</text><path d="M66.0,144.2 L245.3,147.1 L424.7,158.5 L604.0,153.6" fill="none" stroke="var(--s1)" stroke-width="2"/><circle cx="66.0" cy="144.2" r="3.5" fill="var(--s1)" stroke="var(--surface)" stroke-width="1.5"/><circle cx="245.3" cy="147.1" r="3.5" fill="var(--s1)" stroke="var(--surface)" stroke-width="1.5"/><circle cx="424.7" cy="158.5" r="3.5" fill="var(--s1)" stroke="var(--surface)" stroke-width="1.5"/><circle cx="604.0" cy="153.6" r="3.5" fill="var(--s1)" stroke="var(--surface)" stroke-width="1.5"/><path d="M66.0,125.6 L245.3,149.4 L424.7,85.4 L604.0,130.9" fill="none" stroke="var(--s2)" stroke-width="2"/><circle cx="66.0" cy="125.6" r="3.5" fill="var(--s2)" stroke="var(--surface)" stroke-width="1.5"/><circle cx="245.3" cy="149.4" r="3.5" fill="var(--s2)" stroke="var(--surface)" stroke-width="1.5"/><circle cx="424.7" cy="85.4" r="3.5" fill="var(--s2)" stroke="var(--surface)" stroke-width="1.5"/><circle cx="604.0" cy="130.9" r="3.5" fill="var(--s2)" stroke="var(--surface)" stroke-width="1.5"/><path d="M66.0,163.5 L245.3,164.9 L424.7,161.0 L604.0,171.6" fill="none" stroke="var(--s3)" stroke-width="2"/><circle cx="66.0" cy="163.5" r="3.5" fill="var(--s3)" stroke="var(--surface)" stroke-width="1.5"/><circle cx="245.3" cy="164.9" r="3.5" fill="var(--s3)" stroke="var(--surface)" stroke-width="1.5"/><circle cx="424.7" cy="161.0" r="3.5" fill="var(--s3)" stroke="var(--surface)" stroke-width="1.5"/><circle cx="604.0" cy="171.6" r="3.5" fill="var(--s3)" stroke="var(--surface)" stroke-width="1.5"/><text x="612.0" y="134.9" class="val" font-size="10.5" fill="var(--s2)">muse-vulkan</text><text x="612.0" y="157.6" class="val" font-size="10.5" fill="var(--s1)">muse-rocm</text><text x="612.0" y="175.6" class="val" font-size="10.5" fill="var(--s3)">muse-rocm2</text></svg>