<svg xmlns="http://www.w3.org/2000/svg" viewBox="0 0 802 788" width="802" height="788" role="img"><style>
:root{--surface:#fcfcfb;--ink:#0b0b0b;--ink2:#52514e;--muted:#898781;--grid:#e1e0d9;--axis:#c3c2b7;--s1:#2a78d6;--s2:#1baf7a;--s3:#eda100;--s4:#008300;--s5:#4a3aa7;--s6:#e34948;--s7:#e87ba4;--s8:#eb6834;--s9:#2a78d6;--s10:#1baf7a;--s11:#eda100;--s12:#008300;--s13:#4a3aa7;--s14:#e34948;--s15:#e87ba4;--s16:#eb6834}
@media (prefers-color-scheme:dark){:root{--surface:#1a1a19;--ink:#fff;--ink2:#c3c2b7;--muted:#898781;--grid:#2c2c2a;--axis:#383835;--s1:#3987e5;--s2:#199e70;--s3:#c98500;--s4:#008300;--s5:#9085e9;--s6:#e66767;--s7:#d55181;--s8:#d95926;--s9:#3987e5;--s10:#199e70;--s11:#c98500;--s12:#008300;--s13:#9085e9;--s14:#e66767;--s15:#d55181;--s16:#d95926}}
text{font-family:system-ui,-apple-system,'Segoe UI',sans-serif}
.t{fill:var(--ink);font-weight:600}.lab{fill:var(--ink2)}.mut{fill:var(--muted)}.val{fill:var(--ink);font-variant-numeric:tabular-nums}
</style><rect width="802" height="788" fill="var(--surface)"/><text x="20" y="26" class="t" font-size="15">Memory · power · thermal (per config)</text><text x="20" y="44" class="mut" font-size="11">each panel has its own scale — compare within a panel, not across</text><text x="16" y="60" class="t" font-size="12.5">Peak VRAM (MiB)</text><text x="229" y="81" text-anchor="end" class="lab" font-size="10.5">un-d128-f16-rb4096</text><rect x="235" y="72" width="84.5" height="13" rx="3" fill="var(--s1)"/><text x="324.5" y="82" class="val" font-size="10.5">29809</text><text x="229" y="103" text-anchor="end" class="lab" font-size="10.5">xl-d128-f16-rb4096</text><rect x="235" y="94" width="86.5" height="13" rx="3" fill="var(--s2)"/><text x="326.5" y="104" class="val" font-size="10.5">30536</text><text x="229" y="125" text-anchor="end" class="lab" font-size="10.5">q5-d128-q8-rb4096</text><rect x="235" y="116" width="77.8" height="13" rx="3" fill="var(--s3)"/><text x="317.8" y="126" class="val" font-size="10.5">27466</text><text x="229" y="147" text-anchor="end" class="lab" font-size="10.5">q6-d128-q8-rb4096</text><rect x="235" y="138" width="85.6" height="13" rx="3" fill="var(--s4)"/><text x="325.6" y="148" class="val" font-size="10.5">30214</text><text x="229" y="169" text-anchor="end" class="lab" font-size="10.5">a3b-d128-f16-rb4096</text><rect x="235" y="160" width="76.7" height="13" rx="3" fill="var(--s5)"/><text x="316.7" y="170" class="val" font-size="10.5">27081</text><text x="229" y="191" text-anchor="end" class="lab" font-size="10.5">q5-d128-f16-rb16384</text><rect x="235" y="182" width="90.4" height="13" rx="3" fill="var(--s6)"/><text x="330.4" y="192" class="val" font-size="10.5">31918</text><text x="229" y="213" text-anchor="end" class="lab" font-size="10.5">q5-d128-f16-rb4096</text><rect x="235" y="204" width="89.0" height="13" rx="3" fill="var(--s7)"/><text x="329.0" y="214" class="val" font-size="10.5">31415</text><text x="229" y="235" text-anchor="end" class="lab" font-size="10.5">un-d128-f16-rb16384</text><rect x="235" y="226" width="84.6" height="13" rx="3" fill="var(--s8)"/><text x="324.6" y="236" class="val" font-size="10.5">29864</text><text x="229" y="257" text-anchor="end" class="lab" font-size="10.5">a3b-d128-f16-rb16384</text><rect x="235" y="248" width="77.1" height="13" rx="3" fill="var(--s9)"/><text x="317.1" y="258" class="val" font-size="10.5">27196</text><text x="229" y="279" text-anchor="end" class="lab" font-size="10.5">a3b-d128-f16-rbmax</text><rect x="235" y="270" width="87.2" height="13" rx="3" fill="var(--s10)"/><text x="327.2" y="280" class="val" font-size="10.5">30773</text><text x="229" y="301" text-anchor="end" class="lab" font-size="10.5">a3b-d128-f16-rb16384-t03</text><rect x="235" y="292" width="78.9" height="13" rx="3" fill="var(--s11)"/><text x="318.9" y="302" class="val" font-size="10.5">27835</text><text x="229" y="323" text-anchor="end" class="lab" font-size="10.5">a3b-d128-f16-rb16384-t10</text><rect x="235" y="314" width="78.4" height="13" rx="3" fill="var(--s12)"/><text x="318.4" y="324" class="val" font-size="10.5">27671</text><text x="229" y="345" text-anchor="end" class="lab" font-size="10.5">a3b-d128-f16-rb16384-qwen-gen</text><rect x="235" y="336" width="77.5" height="13" rx="3" fill="var(--s13)"/><text x="317.5" y="346" class="val" font-size="10.5">27345</text><text x="229" y="367" text-anchor="end" class="lab" font-size="10.5">a3b-d128-f16-rb16384-unsloth-reason</text><rect x="235" y="358" width="77.5" height="13" rx="3" fill="var(--s14)"/><text x="317.5" y="368" class="val" font-size="10.5">27344</text><text x="417" y="60" class="t" font-size="12.5">Peak GTT / host-RAM spill (MiB)</text><text x="630" y="81" text-anchor="end" class="lab" font-size="10.5">un-d128-f16-rb4096</text><rect x="636" y="72" width="58.1" height="13" rx="3" fill="var(--s1)"/><text x="699.1" y="82" class="val" font-size="10.5">1825</text><text x="630" y="103" text-anchor="end" class="lab" font-size="10.5">xl-d128-f16-rb4096</text><rect x="636" y="94" width="60.5" height="13" rx="3" fill="var(--s2)"/><text x="701.5" y="104" class="val" font-size="10.5">1902</text><text x="630" y="125" text-anchor="end" class="lab" font-size="10.5">q5-d128-q8-rb4096</text><rect x="636" y="116" width="56.5" height="13" rx="3" fill="var(--s3)"/><text x="697.5" y="126" class="val" font-size="10.5">1776</text><text x="630" y="147" text-anchor="end" class="lab" font-size="10.5">q6-d128-q8-rb4096</text><rect x="636" y="138" width="56.5" height="13" rx="3" fill="var(--s4)"/><text x="697.5" y="148" class="val" font-size="10.5">1776</text><text x="630" y="169" text-anchor="end" class="lab" font-size="10.5">a3b-d128-f16-rb4096</text><rect x="636" y="160" width="49.4" height="13" rx="3" fill="var(--s5)"/><text x="690.4" y="170" class="val" font-size="10.5">1551</text><text x="630" y="191" text-anchor="end" class="lab" font-size="10.5">q5-d128-f16-rb16384</text><rect x="636" y="182" width="90.4" height="13" rx="3" fill="var(--s6)"/><text x="731.4" y="192" class="val" font-size="10.5">2841</text><text x="630" y="213" text-anchor="end" class="lab" font-size="10.5">q5-d128-f16-rb4096</text><rect x="636" y="204" width="90.1" height="13" rx="3" fill="var(--s7)"/><text x="731.1" y="214" class="val" font-size="10.5">2829</text><text x="630" y="235" text-anchor="end" class="lab" font-size="10.5">un-d128-f16-rb16384</text><rect x="636" y="226" width="60.5" height="13" rx="3" fill="var(--s8)"/><text x="701.5" y="236" class="val" font-size="10.5">1901</text><text x="630" y="257" text-anchor="end" class="lab" font-size="10.5">a3b-d128-f16-rb16384</text><rect x="636" y="248" width="51.9" height="13" rx="3" fill="var(--s9)"/><text x="692.9" y="258" class="val" font-size="10.5">1629</text><text x="630" y="279" text-anchor="end" class="lab" font-size="10.5">a3b-d128-f16-rbmax</text><rect x="636" y="270" width="53.1" height="13" rx="3" fill="var(--s10)"/><text x="694.1" y="280" class="val" font-size="10.5">1668</text><text x="630" y="301" text-anchor="end" class="lab" font-size="10.5">a3b-d128-f16-rb16384-t03</text><rect x="636" y="292" width="54.2" height="13" rx="3" fill="var(--s11)"/><text x="695.2" y="302" class="val" font-size="10.5">1704</text><text x="630" y="323" text-anchor="end" class="lab" font-size="10.5">a3b-d128-f16-rb16384-t10</text><rect x="636" y="314" width="52.6" height="13" rx="3" fill="var(--s12)"/><text x="693.6" y="324" class="val" font-size="10.5">1652</text><text x="630" y="345" text-anchor="end" class="lab" font-size="10.5">a3b-d128-f16-rb16384-qwen-gen</text><rect x="636" y="336" width="52.4" height="13" rx="3" fill="var(--s13)"/><text x="693.4" y="346" class="val" font-size="10.5">1645</text><text x="630" y="367" text-anchor="end" class="lab" font-size="10.5">a3b-d128-f16-rb16384-unsloth-reason</text><rect x="636" y="358" width="52.3" height="13" rx="3" fill="var(--s14)"/><text x="693.3" y="368" class="val" font-size="10.5">1643</text><text x="16" y="428" class="t" font-size="12.5">Avg power (W)</text><text x="229" y="449" text-anchor="end" class="lab" font-size="10.5">un-d128-f16-rb4096</text><rect x="235" y="440" width="90.1" height="13" rx="3" fill="var(--s1)"/><text x="330.1" y="450" class="val" font-size="10.5">208</text><text x="229" y="471" text-anchor="end" class="lab" font-size="10.5">xl-d128-f16-rb4096</text><rect x="235" y="462" width="89.9" height="13" rx="3" fill="var(--s2)"/><text x="329.9" y="472" class="val" font-size="10.5">208</text><text x="229" y="493" text-anchor="end" class="lab" font-size="10.5">q5-d128-q8-rb4096</text><rect x="235" y="484" width="89.4" height="13" rx="3" fill="var(--s3)"/><text x="329.4" y="494" class="val" font-size="10.5">207</text><text x="229" y="515" text-anchor="end" class="lab" font-size="10.5">q6-d128-q8-rb4096</text><rect x="235" y="506" width="90.0" height="13" rx="3" fill="var(--s4)"/><text x="330.0" y="516" class="val" font-size="10.5">208</text><text x="229" y="537" text-anchor="end" class="lab" font-size="10.5">a3b-d128-f16-rb4096</text><rect x="235" y="528" width="88.8" height="13" rx="3" fill="var(--s5)"/><text x="328.8" y="538" class="val" font-size="10.5">205</text><text x="229" y="559" text-anchor="end" class="lab" font-size="10.5">q5-d128-f16-rb16384</text><rect x="235" y="550" width="86.5" height="13" rx="3" fill="var(--s6)"/><text x="326.5" y="560" class="val" font-size="10.5">200</text><text x="229" y="581" text-anchor="end" class="lab" font-size="10.5">q5-d128-f16-rb4096</text><rect x="235" y="572" width="89.8" height="13" rx="3" fill="var(--s7)"/><text x="329.8" y="582" class="val" font-size="10.5">208</text><text x="229" y="603" text-anchor="end" class="lab" font-size="10.5">un-d128-f16-rb16384</text><rect x="235" y="594" width="90.4" height="13" rx="3" fill="var(--s8)"/><text x="330.4" y="604" class="val" font-size="10.5">209</text><text x="229" y="625" text-anchor="end" class="lab" font-size="10.5">a3b-d128-f16-rb16384</text><rect x="235" y="616" width="90.0" height="13" rx="3" fill="var(--s9)"/><text x="330.0" y="626" class="val" font-size="10.5">208</text><text x="229" y="647" text-anchor="end" class="lab" font-size="10.5">a3b-d128-f16-rbmax</text><rect x="235" y="638" width="89.5" height="13" rx="3" fill="var(--s10)"/><text x="329.5" y="648" class="val" font-size="10.5">207</text><text x="229" y="669" text-anchor="end" class="lab" font-size="10.5">a3b-d128-f16-rb16384-t03</text><rect x="235" y="660" width="89.4" height="13" rx="3" fill="var(--s11)"/><text x="329.4" y="670" class="val" font-size="10.5">207</text><text x="229" y="691" text-anchor="end" class="lab" font-size="10.5">a3b-d128-f16-rb16384-t10</text><rect x="235" y="682" width="90.1" height="13" rx="3" fill="var(--s12)"/><text x="330.1" y="692" class="val" font-size="10.5">208</text><text x="229" y="713" text-anchor="end" class="lab" font-size="10.5">a3b-d128-f16-rb16384-qwen-gen</text><rect x="235" y="704" width="55.1" height="13" rx="3" fill="var(--s13)"/><text x="295.1" y="714" class="val" font-size="10.5">128</text><text x="229" y="735" text-anchor="end" class="lab" font-size="10.5">a3b-d128-f16-rb16384-unsloth-reason</text><rect x="235" y="726" width="54.4" height="13" rx="3" fill="var(--s14)"/><text x="294.4" y="736" class="val" font-size="10.5">126</text><text x="417" y="428" class="t" font-size="12.5">Peak temp (°C)</text><text x="630" y="449" text-anchor="end" class="lab" font-size="10.5">un-d128-f16-rb4096</text><rect x="636" y="440" width="81.2" height="13" rx="3" fill="var(--s1)"/><text x="722.2" y="450" class="val" font-size="10.5">70</text><text x="630" y="471" text-anchor="end" class="lab" font-size="10.5">xl-d128-f16-rb4096</text><rect x="636" y="462" width="82.3" height="13" rx="3" fill="var(--s2)"/><text x="723.3" y="472" class="val" font-size="10.5">71</text><text x="630" y="493" text-anchor="end" class="lab" font-size="10.5">q5-d128-q8-rb4096</text><rect x="636" y="484" width="81.2" height="13" rx="3" fill="var(--s3)"/><text x="722.2" y="494" class="val" font-size="10.5">70</text><text x="630" y="515" text-anchor="end" class="lab" font-size="10.5">q6-d128-q8-rb4096</text><rect x="636" y="506" width="81.2" height="13" rx="3" fill="var(--s4)"/><text x="722.2" y="516" class="val" font-size="10.5">70</text><text x="630" y="537" text-anchor="end" class="lab" font-size="10.5">a3b-d128-f16-rb4096</text><rect x="636" y="528" width="80.0" height="13" rx="3" fill="var(--s5)"/><text x="721.0" y="538" class="val" font-size="10.5">69</text><text x="630" y="559" text-anchor="end" class="lab" font-size="10.5">q5-d128-f16-rb16384</text><rect x="636" y="550" width="78.8" height="13" rx="3" fill="var(--s6)"/><text x="719.8" y="560" class="val" font-size="10.5">68</text><text x="630" y="581" text-anchor="end" class="lab" font-size="10.5">q5-d128-f16-rb4096</text><rect x="636" y="572" width="81.2" height="13" rx="3" fill="var(--s7)"/><text x="722.2" y="582" class="val" font-size="10.5">70</text><text x="630" y="603" text-anchor="end" class="lab" font-size="10.5">un-d128-f16-rb16384</text><rect x="636" y="594" width="82.3" height="13" rx="3" fill="var(--s8)"/><text x="723.3" y="604" class="val" font-size="10.5">71</text><text x="630" y="625" text-anchor="end" class="lab" font-size="10.5">a3b-d128-f16-rb16384</text><rect x="636" y="616" width="80.0" height="13" rx="3" fill="var(--s9)"/><text x="721.0" y="626" class="val" font-size="10.5">69</text><text x="630" y="647" text-anchor="end" class="lab" font-size="10.5">a3b-d128-f16-rbmax</text><rect x="636" y="638" width="80.0" height="13" rx="3" fill="var(--s10)"/><text x="721.0" y="648" class="val" font-size="10.5">69</text><text x="630" y="669" text-anchor="end" class="lab" font-size="10.5">a3b-d128-f16-rb16384-t03</text><rect x="636" y="660" width="80.0" height="13" rx="3" fill="var(--s11)"/><text x="721.0" y="670" class="val" font-size="10.5">69</text><text x="630" y="691" text-anchor="end" class="lab" font-size="10.5">a3b-d128-f16-rb16384-t10</text><rect x="636" y="682" width="80.0" height="13" rx="3" fill="var(--s12)"/><text x="721.0" y="692" class="val" font-size="10.5">69</text><text x="630" y="713" text-anchor="end" class="lab" font-size="10.5">a3b-d128-f16-rb16384-qwen-gen</text><rect x="636" y="704" width="90.4" height="13" rx="3" fill="var(--s13)"/><text x="731.4" y="714" class="val" font-size="10.5">78</text><text x="630" y="735" text-anchor="end" class="lab" font-size="10.5">a3b-d128-f16-rb16384-unsloth-reason</text><rect x="636" y="726" width="90.4" height="13" rx="3" fill="var(--s14)"/><text x="731.4" y="736" class="val" font-size="10.5">78</text></svg>