<svg xmlns="http://www.w3.org/2000/svg" viewBox="0 0 720 562" width="720" height="562" role="img"><style>
:root{--surface:#fcfcfb;--ink:#0b0b0b;--ink2:#52514e;--muted:#898781;--grid:#e1e0d9;--axis:#c3c2b7;--s1:#2a78d6;--s2:#1baf7a;--s3:#eda100;--s4:#008300;--s5:#4a3aa7;--s6:#e34948;--s7:#e87ba4;--s8:#eb6834;--s9:#2a78d6;--s10:#1baf7a;--s11:#eda100;--s12:#008300;--s13:#4a3aa7;--s14:#e34948;--s15:#e87ba4;--s16:#eb6834}
@media (prefers-color-scheme:dark){:root{--surface:#1a1a19;--ink:#fff;--ink2:#c3c2b7;--muted:#898781;--grid:#2c2c2a;--axis:#383835;--s1:#3987e5;--s2:#199e70;--s3:#c98500;--s4:#008300;--s5:#9085e9;--s6:#e66767;--s7:#d55181;--s8:#d95926;--s9:#3987e5;--s10:#199e70;--s11:#c98500;--s12:#008300;--s13:#9085e9;--s14:#e66767;--s15:#d55181;--s16:#d95926}}
text{font-family:system-ui,-apple-system,'Segoe UI',sans-serif}
.t{fill:var(--ink);font-weight:600}.lab{fill:var(--ink2)}.mut{fill:var(--muted)}.val{fill:var(--ink);font-variant-numeric:tabular-nums}
</style><rect width="720" height="562" fill="var(--surface)"/><text x="20" y="26" class="t" font-size="15">🎯 Capability per task — best 27B &amp; 35B vs haiku / sonnet / opus one-shot</text><text x="20" y="44" class="mut" font-size="11">each panel has its own scale — compare within a panel, not across</text><text x="16" y="60" class="t" font-size="12.5">rate-limiter  (sonnet)</text><text x="108" y="81" text-anchor="end" class="lab" font-size="10.5">27B best</text><rect x="114" y="72" width="171.9" height="13" rx="3" fill="var(--s6)"/><text x="290.9" y="82" class="val" font-size="10.5">94%</text><text x="108" y="103" text-anchor="end" class="lab" font-size="10.5">35B</text><rect x="114" y="94" width="165.1" height="13" rx="3" fill="var(--s8)"/><text x="284.1" y="104" class="val" font-size="10.5">90%</text><text x="108" y="125" text-anchor="end" class="lab" font-size="10.5">haiku</text><rect x="114" y="116" width="156.5" height="13" rx="3" fill="var(--s8)"/><text x="275.5" y="126" class="val" font-size="10.5">86%</text><text x="108" y="147" text-anchor="end" class="lab" font-size="10.5">sonnet</text><rect x="114" y="138" width="182.6" height="13" rx="3" fill="var(--s5)"/><text x="301.6" y="148" class="val" font-size="10.5">100%</text><text x="108" y="169" text-anchor="end" class="lab" font-size="10.5">opus</text><rect x="114" y="160" width="177.3" height="13" rx="3" fill="var(--s4)"/><text x="296.3" y="170" class="val" font-size="10.5">97%</text><text x="376" y="60" class="t" font-size="12.5">lru-cache  (sonnet)</text><text x="468" y="81" text-anchor="end" class="lab" font-size="10.5">27B best</text><rect x="474" y="72" width="162.0" height="13" rx="3" fill="var(--s6)"/><text x="641.0" y="82" class="val" font-size="10.5">85%</text><text x="468" y="103" text-anchor="end" class="lab" font-size="10.5">35B</text><rect x="474" y="94" width="164.1" height="13" rx="3" fill="var(--s8)"/><text x="643.1" y="104" class="val" font-size="10.5">86%</text><text x="468" y="125" text-anchor="end" class="lab" font-size="10.5">haiku</text><rect x="474" y="116" width="155.0" height="13" rx="3" fill="var(--s8)"/><text x="634.0" y="126" class="val" font-size="10.5">81%</text><text x="468" y="147" text-anchor="end" class="lab" font-size="10.5">sonnet</text><rect x="474" y="138" width="182.6" height="13" rx="3" fill="var(--s5)"/><text x="661.6" y="148" class="val" font-size="10.5">96%</text><text x="468" y="169" text-anchor="end" class="lab" font-size="10.5">opus</text><rect x="474" y="160" width="173.1" height="13" rx="3" fill="var(--s4)"/><text x="652.1" y="170" class="val" font-size="10.5">91%</text><text x="16" y="230" class="t" font-size="12.5">async-memo  (opus)</text><text x="108" y="251" text-anchor="end" class="lab" font-size="10.5">27B best</text><rect x="114" y="242" width="182.6" height="13" rx="3" fill="var(--s6)"/><text x="301.6" y="252" class="val" font-size="10.5">91%</text><text x="108" y="273" text-anchor="end" class="lab" font-size="10.5">35B</text><rect x="114" y="264" width="179.7" height="13" rx="3" fill="var(--s8)"/><text x="298.7" y="274" class="val" font-size="10.5">90%</text><text x="108" y="295" text-anchor="end" class="lab" font-size="10.5">haiku</text><rect x="114" y="286" width="153.8" height="13" rx="3" fill="var(--s8)"/><text x="272.8" y="296" class="val" font-size="10.5">77%</text><text x="108" y="317" text-anchor="end" class="lab" font-size="10.5">sonnet</text><rect x="114" y="308" width="182.6" height="13" rx="3" fill="var(--s5)"/><text x="301.6" y="318" class="val" font-size="10.5">91%</text><text x="108" y="339" text-anchor="end" class="lab" font-size="10.5">opus</text><rect x="114" y="330" width="166.8" height="13" rx="3" fill="var(--s4)"/><text x="285.8" y="340" class="val" font-size="10.5">83%</text><text x="376" y="230" class="t" font-size="12.5">expr-eval  (opus)</text><text x="468" y="251" text-anchor="end" class="lab" font-size="10.5">27B best</text><rect x="474" y="242" width="126.8" height="13" rx="3" fill="var(--s6)"/><text x="605.8" y="252" class="val" font-size="10.5">67%</text><text x="468" y="273" text-anchor="end" class="lab" font-size="10.5">35B</text><rect x="474" y="264" width="119.0" height="13" rx="3" fill="var(--s8)"/><text x="598.0" y="274" class="val" font-size="10.5">63%</text><text x="468" y="295" text-anchor="end" class="lab" font-size="10.5">haiku</text><rect x="474" y="286" width="116.5" height="13" rx="3" fill="var(--s8)"/><text x="595.5" y="296" class="val" font-size="10.5">62%</text><text x="468" y="317" text-anchor="end" class="lab" font-size="10.5">sonnet</text><rect x="474" y="308" width="148.2" height="13" rx="3" fill="var(--s5)"/><text x="627.2" y="318" class="val" font-size="10.5">78%</text><text x="468" y="339" text-anchor="end" class="lab" font-size="10.5">opus</text><rect x="474" y="330" width="182.6" height="13" rx="3" fill="var(--s4)"/><text x="661.6" y="340" class="val" font-size="10.5">97%</text><text x="16" y="400" class="t" font-size="12.5">pricing-deferred  (opus)</text><text x="108" y="421" text-anchor="end" class="lab" font-size="10.5">27B best</text><rect x="114" y="412" width="152.8" height="13" rx="3" fill="var(--s6)"/><text x="271.8" y="422" class="val" font-size="10.5">81%</text><text x="108" y="443" text-anchor="end" class="lab" font-size="10.5">35B</text><rect x="114" y="434" width="166.6" height="13" rx="3" fill="var(--s8)"/><text x="285.6" y="444" class="val" font-size="10.5">89%</text><text x="108" y="465" text-anchor="end" class="lab" font-size="10.5">haiku</text><rect x="114" y="456" width="166.8" height="13" rx="3" fill="var(--s8)"/><text x="285.8" y="466" class="val" font-size="10.5">89%</text><text x="108" y="487" text-anchor="end" class="lab" font-size="10.5">sonnet</text><rect x="114" y="478" width="180.9" height="13" rx="3" fill="var(--s5)"/><text x="299.9" y="488" class="val" font-size="10.5">96%</text><text x="108" y="509" text-anchor="end" class="lab" font-size="10.5">opus</text><rect x="114" y="500" width="182.6" height="13" rx="3" fill="var(--s4)"/><text x="301.6" y="510" class="val" font-size="10.5">97%</text></svg>