<svg xmlns="http://www.w3.org/2000/svg" viewBox="0 0 720 392" width="720" height="392" role="img"><style>
:root{--surface:#fcfcfb;--ink:#0b0b0b;--ink2:#52514e;--muted:#898781;--grid:#e1e0d9;--axis:#c3c2b7;--s1:#2a78d6;--s2:#1baf7a;--s3:#eda100;--s4:#008300;--s5:#4a3aa7;--s6:#e34948;--s7:#e87ba4;--s8:#eb6834;--s9:#2a78d6;--s10:#1baf7a;--s11:#eda100;--s12:#008300;--s13:#4a3aa7;--s14:#e34948;--s15:#e87ba4;--s16:#eb6834}
@media (prefers-color-scheme:dark){:root{--surface:#1a1a19;--ink:#fff;--ink2:#c3c2b7;--muted:#898781;--grid:#2c2c2a;--axis:#383835;--s1:#3987e5;--s2:#199e70;--s3:#c98500;--s4:#008300;--s5:#9085e9;--s6:#e66767;--s7:#d55181;--s8:#d95926;--s9:#3987e5;--s10:#199e70;--s11:#c98500;--s12:#008300;--s13:#9085e9;--s14:#e66767;--s15:#d55181;--s16:#d95926}}
text{font-family:system-ui,-apple-system,'Segoe UI',sans-serif}
.t{fill:var(--ink);font-weight:600}.lab{fill:var(--ink2)}.mut{fill:var(--muted)}.val{fill:var(--ink);font-variant-numeric:tabular-nums}
</style><rect width="720" height="392" fill="var(--surface)"/><text x="20" y="26" class="t" font-size="15">🤖 27B quant ladder + 35B-A3B → quality (TS %), per task (@128k f16, rb4096)</text><text x="20" y="44" class="mut" font-size="11">each panel has its own scale — compare within a panel, not across</text><text x="16" y="60" class="t" font-size="12.5">rate-limiter</text><text x="108" y="81" text-anchor="end" class="lab" font-size="10.5">Q4_K_M</text><rect x="114" y="72" width="158.1" height="13" rx="3" fill="var(--s1)"/><text x="277.1" y="82" class="val" font-size="10.5">79%</text><text x="108" y="103" text-anchor="end" class="lab" font-size="10.5">Q4_K_XL</text><rect x="114" y="94" width="152.1" height="13" rx="3" fill="var(--s2)"/><text x="271.1" y="104" class="val" font-size="10.5">76%</text><text x="108" y="125" text-anchor="end" class="lab" font-size="10.5">Q5_K_M</text><rect x="114" y="116" width="155.6" height="13" rx="3" fill="var(--s5)"/><text x="274.6" y="126" class="val" font-size="10.5">78%</text><text x="108" y="147" text-anchor="end" class="lab" font-size="10.5">Q6_K</text><rect x="114" y="138" width="182.6" height="13" rx="3" fill="var(--s6)"/><text x="301.6" y="148" class="val" font-size="10.5">91%</text><text x="108" y="169" text-anchor="end" class="lab" font-size="10.5">35B</text><rect x="114" y="160" width="142.0" height="13" rx="3" fill="var(--s8)"/><text x="261.0" y="170" class="val" font-size="10.5">71%</text><text x="376" y="60" class="t" font-size="12.5">lru-cache</text><text x="468" y="81" text-anchor="end" class="lab" font-size="10.5">Q4_K_M</text><rect x="474" y="72" width="182.6" height="13" rx="3" fill="var(--s1)"/><text x="661.6" y="82" class="val" font-size="10.5">85%</text><text x="468" y="103" text-anchor="end" class="lab" font-size="10.5">Q4_K_XL</text><rect x="474" y="94" width="136.0" height="13" rx="3" fill="var(--s2)"/><text x="615.0" y="104" class="val" font-size="10.5">63%</text><text x="468" y="125" text-anchor="end" class="lab" font-size="10.5">Q5_K_M</text><rect x="474" y="116" width="179.7" height="13" rx="3" fill="var(--s5)"/><text x="658.7" y="126" class="val" font-size="10.5">84%</text><text x="468" y="147" text-anchor="end" class="lab" font-size="10.5">Q6_K</text><rect x="474" y="138" width="180.4" height="13" rx="3" fill="var(--s6)"/><text x="659.4" y="148" class="val" font-size="10.5">84%</text><text x="468" y="169" text-anchor="end" class="lab" font-size="10.5">35B</text><rect x="474" y="160" width="175.5" height="13" rx="3" fill="var(--s8)"/><text x="654.5" y="170" class="val" font-size="10.5">82%</text><text x="16" y="230" class="t" font-size="12.5">async-memo</text><text x="108" y="251" text-anchor="end" class="lab" font-size="10.5">Q4_K_M</text><rect x="114" y="242" width="182.6" height="13" rx="3" fill="var(--s1)"/><text x="301.6" y="252" class="val" font-size="10.5">91%</text><text x="108" y="273" text-anchor="end" class="lab" font-size="10.5">Q4_K_XL</text><rect x="114" y="264" width="175.5" height="13" rx="3" fill="var(--s2)"/><text x="294.5" y="274" class="val" font-size="10.5">88%</text><text x="108" y="295" text-anchor="end" class="lab" font-size="10.5">Q5_K_M</text><rect x="114" y="286" width="156.4" height="13" rx="3" fill="var(--s5)"/><text x="275.4" y="296" class="val" font-size="10.5">78%</text><text x="108" y="317" text-anchor="end" class="lab" font-size="10.5">Q6_K</text><rect x="114" y="308" width="179.5" height="13" rx="3" fill="var(--s6)"/><text x="298.5" y="318" class="val" font-size="10.5">90%</text><text x="108" y="339" text-anchor="end" class="lab" font-size="10.5">35B</text><rect x="114" y="330" width="173.9" height="13" rx="3" fill="var(--s8)"/><text x="292.9" y="340" class="val" font-size="10.5">87%</text><text x="376" y="230" class="t" font-size="12.5">expr-eval</text><text x="468" y="251" text-anchor="end" class="lab" font-size="10.5">Q4_K_M</text><rect x="474" y="242" width="165.7" height="13" rx="3" fill="var(--s1)"/><text x="644.7" y="252" class="val" font-size="10.5">58%</text><text x="468" y="273" text-anchor="end" class="lab" font-size="10.5">Q4_K_XL</text><rect x="474" y="264" width="121.6" height="13" rx="3" fill="var(--s2)"/><text x="600.6" y="274" class="val" font-size="10.5">42%</text><text x="468" y="295" text-anchor="end" class="lab" font-size="10.5">Q5_K_M</text><rect x="474" y="286" width="182.6" height="13" rx="3" fill="var(--s5)"/><text x="661.6" y="296" class="val" font-size="10.5">64%</text><text x="468" y="317" text-anchor="end" class="lab" font-size="10.5">Q6_K</text><rect x="474" y="308" width="181.0" height="13" rx="3" fill="var(--s6)"/><text x="660.0" y="318" class="val" font-size="10.5">63%</text><text x="468" y="339" text-anchor="end" class="lab" font-size="10.5">35B</text><rect x="474" y="330" width="125.9" height="13" rx="3" fill="var(--s8)"/><text x="604.9" y="340" class="val" font-size="10.5">44%</text></svg>