<svg xmlns="http://www.w3.org/2000/svg" viewBox="0 0 760 678" width="760" height="678" role="img"><style>
:root{--surface:#fcfcfb;--ink:#0b0b0b;--ink2:#52514e;--muted:#898781;--grid:#e1e0d9;--axis:#c3c2b7;--s1:#2a78d6;--s2:#1baf7a;--s3:#eda100;--s4:#008300;--s5:#4a3aa7;--s6:#e34948;--s7:#e87ba4;--s8:#eb6834;--s9:#2a78d6;--s10:#1baf7a;--s11:#eda100;--s12:#008300;--s13:#4a3aa7;--s14:#e34948;--s15:#e87ba4;--s16:#eb6834}
@media (prefers-color-scheme:dark){:root{--surface:#1a1a19;--ink:#fff;--ink2:#c3c2b7;--muted:#898781;--grid:#2c2c2a;--axis:#383835;--s1:#3987e5;--s2:#199e70;--s3:#c98500;--s4:#008300;--s5:#9085e9;--s6:#e66767;--s7:#d55181;--s8:#d95926;--s9:#3987e5;--s10:#199e70;--s11:#c98500;--s12:#008300;--s13:#9085e9;--s14:#e66767;--s15:#d55181;--s16:#d95926}}
text{font-family:system-ui,-apple-system,'Segoe UI',sans-serif}
.t{fill:var(--ink);font-weight:600}.lab{fill:var(--ink2)}.mut{fill:var(--muted)}.val{fill:var(--ink);font-variant-numeric:tabular-nums}
</style><rect width="760" height="678" fill="var(--surface)"/><text x="20" y="26" class="t" font-size="15">⚡ Best quality for least time, per task (bubble = output tokens, color = quant/model, label = quant)</text><text x="20" y="45" class="mut" font-size="11">x = generation seconds (→ slower) · y = quality % (↑) · bubble = output tokens · color = reasoning budget · UP-and-LEFT wins</text><text x="50" y="66" class="t" font-size="12">rate-limiter  (sonnet)</text><line x1="56" y1="200.0" x2="344" y2="200.0" stroke="var(--grid)" stroke-width="1"/><text x="50" y="204.0" text-anchor="end" class="mut" font-size="9">15</text><line x1="56" y1="176.7" x2="344" y2="176.7" stroke="var(--grid)" stroke-width="1"/><text x="50" y="180.7" text-anchor="end" class="mut" font-size="9">20</text><line x1="56" y1="153.3" x2="344" y2="153.3" stroke="var(--grid)" stroke-width="1"/><text x="50" y="157.3" text-anchor="end" class="mut" font-size="9">25</text><line x1="56" y1="130.0" x2="344" y2="130.0" stroke="var(--grid)" stroke-width="1"/><text x="50" y="134.0" text-anchor="end" class="mut" font-size="9">30</text><line x1="56" y1="106.7" x2="344" y2="106.7" stroke="var(--grid)" stroke-width="1"/><text x="50" y="110.7" text-anchor="end" class="mut" font-size="9">35</text><line x1="56" y1="83.3" x2="344" y2="83.3" stroke="var(--grid)" stroke-width="1"/><text x="50" y="87.3" text-anchor="end" class="mut" font-size="9">40</text><text x="69.8" y="214" text-anchor="middle" class="mut" font-size="9">72s</text><text x="299.8" y="214" text-anchor="middle" class="mut" font-size="9">191s</text><circle cx="69.8" cy="86.0" r="10.9" fill="var(--s8)" fill-opacity="0.78" stroke="var(--surface)" stroke-width="1.5"/><circle cx="299.8" cy="163.1" r="8.5" fill="var(--s2)" fill-opacity="0.78" stroke="var(--surface)" stroke-width="1.5"/><text x="80.8" y="90.0" text-anchor="start" class="val" font-size="10">★ 35B</text><text x="430" y="66" class="t" font-size="12">lru-cache  (sonnet)</text><line x1="436" y1="200.0" x2="724" y2="200.0" stroke="var(--grid)" stroke-width="1"/><text x="430" y="204.0" text-anchor="end" class="mut" font-size="9">45</text><line x1="436" y1="176.7" x2="724" y2="176.7" stroke="var(--grid)" stroke-width="1"/><text x="430" y="180.7" text-anchor="end" class="mut" font-size="9">50</text><line x1="436" y1="153.3" x2="724" y2="153.3" stroke="var(--grid)" stroke-width="1"/><text x="430" y="157.3" text-anchor="end" class="mut" font-size="9">55</text><line x1="436" y1="130.0" x2="724" y2="130.0" stroke="var(--grid)" stroke-width="1"/><text x="430" y="134.0" text-anchor="end" class="mut" font-size="9">60</text><line x1="436" y1="106.7" x2="724" y2="106.7" stroke="var(--grid)" stroke-width="1"/><text x="430" y="110.7" text-anchor="end" class="mut" font-size="9">65</text><line x1="436" y1="83.3" x2="724" y2="83.3" stroke="var(--grid)" stroke-width="1"/><text x="430" y="87.3" text-anchor="end" class="mut" font-size="9">70</text><text x="448.9" y="214" text-anchor="middle" class="mut" font-size="9">124s</text><text x="680.7" y="214" text-anchor="middle" class="mut" font-size="9">348s</text><circle cx="448.9" cy="169.0" r="13.0" fill="var(--s8)" fill-opacity="0.78" stroke="var(--surface)" stroke-width="1.5"/><circle cx="680.7" cy="96.9" r="10.0" fill="var(--s2)" fill-opacity="0.78" stroke="var(--surface)" stroke-width="1.5"/><text x="669.7" y="100.9" text-anchor="end" class="val" font-size="10">★ Q4_K_XL</text><text x="50" y="266" class="t" font-size="12">async-memo  (opus)</text><line x1="56" y1="400.0" x2="344" y2="400.0" stroke="var(--grid)" stroke-width="1"/><text x="50" y="404.0" text-anchor="end" class="mut" font-size="9">75</text><line x1="56" y1="374.8" x2="344" y2="374.8" stroke="var(--grid)" stroke-width="1"/><text x="50" y="378.8" text-anchor="end" class="mut" font-size="9">80</text><line x1="56" y1="349.6" x2="344" y2="349.6" stroke="var(--grid)" stroke-width="1"/><text x="50" y="353.6" text-anchor="end" class="mut" font-size="9">85</text><line x1="56" y1="324.4" x2="344" y2="324.4" stroke="var(--grid)" stroke-width="1"/><text x="50" y="328.4" text-anchor="end" class="mut" font-size="9">90</text><line x1="56" y1="299.2" x2="344" y2="299.2" stroke="var(--grid)" stroke-width="1"/><text x="50" y="303.2" text-anchor="end" class="mut" font-size="9">95</text><line x1="56" y1="274.0" x2="344" y2="274.0" stroke="var(--grid)" stroke-width="1"/><text x="50" y="278.0" text-anchor="end" class="mut" font-size="9">100</text><text x="67.1" y="414" text-anchor="middle" class="mut" font-size="9">59s</text><text x="302.4" y="414" text-anchor="middle" class="mut" font-size="9">184s</text><circle cx="67.1" cy="309.8" r="10.2" fill="var(--s8)" fill-opacity="0.78" stroke="var(--surface)" stroke-width="1.5"/><circle cx="302.4" cy="346.1" r="8.4" fill="var(--s2)" fill-opacity="0.78" stroke="var(--surface)" stroke-width="1.5"/><text x="78.1" y="313.8" text-anchor="start" class="val" font-size="10">★ 35B</text><text x="430" y="266" class="t" font-size="12">expr-eval  (opus)</text><line x1="436" y1="400.0" x2="724" y2="400.0" stroke="var(--grid)" stroke-width="1"/><text x="430" y="404.0" text-anchor="end" class="mut" font-size="9">25</text><line x1="436" y1="365.9" x2="724" y2="365.9" stroke="var(--grid)" stroke-width="1"/><text x="430" y="369.9" text-anchor="end" class="mut" font-size="9">35</text><line x1="436" y1="331.9" x2="724" y2="331.9" stroke="var(--grid)" stroke-width="1"/><text x="430" y="335.9" text-anchor="end" class="mut" font-size="9">45</text><line x1="436" y1="297.8" x2="724" y2="297.8" stroke="var(--grid)" stroke-width="1"/><text x="430" y="301.8" text-anchor="end" class="mut" font-size="9">55</text><text x="451.6" y="414" text-anchor="middle" class="mut" font-size="9">99s</text><text x="678.1" y="414" text-anchor="middle" class="mut" font-size="9">242s</text><circle cx="451.6" cy="282.4" r="12.0" fill="var(--s8)" fill-opacity="0.78" stroke="var(--surface)" stroke-width="1.5"/><circle cx="678.1" cy="371.7" r="9.1" fill="var(--s2)" fill-opacity="0.78" stroke="var(--surface)" stroke-width="1.5"/><text x="462.6" y="286.4" text-anchor="start" class="val" font-size="10">★ 35B</text><text x="50" y="466" class="t" font-size="12">pricing-deferred  (opus)</text><line x1="56" y1="600.0" x2="344" y2="600.0" stroke="var(--grid)" stroke-width="1"/><text x="50" y="604.0" text-anchor="end" class="mut" font-size="9">55</text><line x1="56" y1="576.7" x2="344" y2="576.7" stroke="var(--grid)" stroke-width="1"/><text x="50" y="580.7" text-anchor="end" class="mut" font-size="9">60</text><line x1="56" y1="553.3" x2="344" y2="553.3" stroke="var(--grid)" stroke-width="1"/><text x="50" y="557.3" text-anchor="end" class="mut" font-size="9">65</text><line x1="56" y1="530.0" x2="344" y2="530.0" stroke="var(--grid)" stroke-width="1"/><text x="50" y="534.0" text-anchor="end" class="mut" font-size="9">70</text><line x1="56" y1="506.7" x2="344" y2="506.7" stroke="var(--grid)" stroke-width="1"/><text x="50" y="510.7" text-anchor="end" class="mut" font-size="9">75</text><line x1="56" y1="483.3" x2="344" y2="483.3" stroke="var(--grid)" stroke-width="1"/><text x="50" y="487.3" text-anchor="end" class="mut" font-size="9">80</text><text x="65.3" y="614" text-anchor="middle" class="mut" font-size="9">78s</text><text x="304.2" y="614" text-anchor="middle" class="mut" font-size="9">280s</text><circle cx="65.3" cy="541.4" r="11.6" fill="var(--s8)" fill-opacity="0.78" stroke="var(--surface)" stroke-width="1.5"/><circle cx="304.2" cy="510.4" r="10.0" fill="var(--s2)" fill-opacity="0.78" stroke="var(--surface)" stroke-width="1.5"/><text x="293.2" y="514.4" text-anchor="end" class="val" font-size="10">★ Q4_K_XL</text></svg>