<svg xmlns="http://www.w3.org/2000/svg" viewBox="0 0 720 458" width="720" height="458" role="img"><style>
:root{--surface:#fcfcfb;--ink:#0b0b0b;--ink2:#52514e;--muted:#898781;--grid:#e1e0d9;--axis:#c3c2b7;--s1:#2a78d6;--s2:#1baf7a;--s3:#eda100;--s4:#008300;--s5:#4a3aa7;--s6:#e34948;--s7:#e87ba4;--s8:#eb6834}
@media (prefers-color-scheme:dark){:root{--surface:#1a1a19;--ink:#fff;--ink2:#c3c2b7;--muted:#898781;--grid:#2c2c2a;--axis:#383835;--s1:#3987e5;--s2:#199e70;--s3:#c98500;--s4:#008300;--s5:#9085e9;--s6:#e66767;--s7:#d55181;--s8:#d95926}}
text{font-family:system-ui,-apple-system,'Segoe UI',sans-serif}
.t{fill:var(--ink);font-weight:600}.lab{fill:var(--ink2)}.mut{fill:var(--muted)}.val{fill:var(--ink);font-variant-numeric:tabular-nums}
</style><rect width="720" height="458" fill="var(--surface)"/><text x="20" y="26" class="t" font-size="15">Deterministic accuracy (objective, auto-graded)</text><text x="158" y="71.68" text-anchor="end" class="lab" font-size="12.5">jr-rb2048</text><rect x="168" y="54" width="426.8" height="26" rx="4" fill="var(--s1)"/><text x="602.8" y="71.68" class="val" font-size="12.5">100%</text><text x="158" y="109.68" text-anchor="end" class="lab" font-size="12.5">jr-rb1024</text><rect x="168" y="92" width="426.8" height="26" rx="4" fill="var(--s2)"/><text x="602.8" y="109.68" class="val" font-size="12.5">100%</text><text x="158" y="147.68" text-anchor="end" class="lab" font-size="12.5">jr-rb512</text><rect x="168" y="130" width="426.8" height="26" rx="4" fill="var(--s3)"/><text x="602.8" y="147.68" class="val" font-size="12.5">100%</text><text x="158" y="185.68" text-anchor="end" class="lab" font-size="12.5">jr-rb0</text><rect x="168" y="168" width="426.8" height="26" rx="4" fill="var(--s4)"/><text x="602.8" y="185.68" class="val" font-size="12.5">100%</text><text x="158" y="223.68" text-anchor="end" class="lab" font-size="12.5">un-rb2048</text><rect x="168" y="206" width="426.8" height="26" rx="4" fill="var(--s5)"/><text x="602.8" y="223.68" class="val" font-size="12.5">100%</text><text x="158" y="261.68" text-anchor="end" class="lab" font-size="12.5">un-rb1024</text><rect x="168" y="244" width="426.8" height="26" rx="4" fill="var(--s6)"/><text x="602.8" y="261.68" class="val" font-size="12.5">100%</text><text x="158" y="299.68" text-anchor="end" class="lab" font-size="12.5">un-rb512</text><rect x="168" y="282" width="426.8" height="26" rx="4" fill="var(--s7)"/><text x="602.8" y="299.68" class="val" font-size="12.5">100%</text><text x="158" y="337.68" text-anchor="end" class="lab" font-size="12.5">un-pmin05</text><rect x="168" y="320" width="426.8" height="26" rx="4" fill="var(--s8)"/><text x="602.8" y="337.68" class="val" font-size="12.5">100%</text><text x="158" y="375.68" text-anchor="end" class="lab" font-size="12.5">un-pmin075</text><rect x="168" y="358" width="388.0" height="26" rx="4" fill="var(--s9)"/><text x="564.0" y="375.68" class="val" font-size="12.5">91%</text><text x="158" y="413.68" text-anchor="end" class="lab" font-size="12.5">un-nmax5</text><rect x="168" y="396" width="388.0" height="26" rx="4" fill="var(--s10)"/><text x="564.0" y="413.68" class="val" font-size="12.5">91%</text></svg>