<svg xmlns="http://www.w3.org/2000/svg" viewBox="0 0 720 260" width="720" height="260" role="img"><style>
:root{--surface:#fcfcfb;--ink:#0b0b0b;--ink2:#52514e;--muted:#898781;--grid:#e1e0d9;--axis:#c3c2b7;--s1:#2a78d6;--s2:#1baf7a;--s3:#eda100;--s4:#008300;--s5:#4a3aa7;--s6:#e34948;--s7:#e87ba4;--s8:#eb6834;--s9:#2a78d6;--s10:#1baf7a;--s11:#eda100;--s12:#008300;--s13:#4a3aa7;--s14:#e34948;--s15:#e87ba4;--s16:#eb6834}
@media (prefers-color-scheme:dark){:root{--surface:#1a1a19;--ink:#fff;--ink2:#c3c2b7;--muted:#898781;--grid:#2c2c2a;--axis:#383835;--s1:#3987e5;--s2:#199e70;--s3:#c98500;--s4:#008300;--s5:#9085e9;--s6:#e66767;--s7:#d55181;--s8:#d95926;--s9:#3987e5;--s10:#199e70;--s11:#c98500;--s12:#008300;--s13:#9085e9;--s14:#e66767;--s15:#d55181;--s16:#d95926}}
text{font-family:system-ui,-apple-system,'Segoe UI',sans-serif}
.t{fill:var(--ink);font-weight:600}.lab{fill:var(--ink2)}.mut{fill:var(--muted)}.val{fill:var(--ink);font-variant-numeric:tabular-nums}
</style><rect width="720" height="260" fill="var(--surface)"/><text x="20" y="26" class="t" font-size="15">Memory · power · thermal (per config)</text><text x="20" y="44" class="mut" font-size="11">each panel has its own scale — compare within a panel, not across</text><text x="16" y="60" class="t" font-size="12.5">Peak VRAM (MiB)</text><text x="154" y="81" text-anchor="end" class="lab" font-size="10.5">ornith-d128-f16-rb4096</text><rect x="160" y="72" width="112.5" height="13" rx="3" fill="var(--s1)"/><text x="277.5" y="82" class="val" font-size="10.5">25400</text><text x="154" y="103" text-anchor="end" class="lab" font-size="10.5">gemma-d128-q8-rb4096</text><rect x="160" y="94" width="120.0" height="13" rx="3" fill="var(--s2)"/><text x="285.0" y="104" class="val" font-size="10.5">27097</text><text x="376" y="60" class="t" font-size="12.5">Peak GTT / host-RAM spill (MiB)</text><text x="514" y="81" text-anchor="end" class="lab" font-size="10.5">ornith-d128-f16-rb4096</text><rect x="520" y="72" width="120.0" height="13" rx="3" fill="var(--s1)"/><text x="645.0" y="82" class="val" font-size="10.5">815</text><text x="514" y="103" text-anchor="end" class="lab" font-size="10.5">gemma-d128-q8-rb4096</text><rect x="520" y="94" width="13.3" height="13" rx="3" fill="var(--s2)"/><text x="538.3" y="104" class="val" font-size="10.5">90</text><text x="16" y="164" class="t" font-size="12.5">Avg power (W)</text><text x="154" y="185" text-anchor="end" class="lab" font-size="10.5">ornith-d128-f16-rb4096</text><rect x="160" y="176" width="120.0" height="13" rx="3" fill="var(--s1)"/><text x="285.0" y="186" class="val" font-size="10.5">208</text><text x="154" y="207" text-anchor="end" class="lab" font-size="10.5">gemma-d128-q8-rb4096</text><rect x="160" y="198" width="119.6" height="13" rx="3" fill="var(--s2)"/><text x="284.6" y="208" class="val" font-size="10.5">207</text><text x="376" y="164" class="t" font-size="12.5">Peak temp (°C)</text><text x="514" y="185" text-anchor="end" class="lab" font-size="10.5">ornith-d128-f16-rb4096</text><rect x="520" y="176" width="118.2" height="13" rx="3" fill="var(--s1)"/><text x="643.2" y="186" class="val" font-size="10.5">67</text><text x="514" y="207" text-anchor="end" class="lab" font-size="10.5">gemma-d128-q8-rb4096</text><rect x="520" y="198" width="120.0" height="13" rx="3" fill="var(--s2)"/><text x="645.0" y="208" class="val" font-size="10.5">68</text></svg>