<svg xmlns="http://www.w3.org/2000/svg" viewBox="0 0 760 678" width="760" height="678" role="img"><style>
:root{--surface:#fcfcfb;--ink:#0b0b0b;--ink2:#52514e;--muted:#898781;--grid:#e1e0d9;--axis:#c3c2b7;--s1:#2a78d6;--s2:#1baf7a;--s3:#eda100;--s4:#008300;--s5:#4a3aa7;--s6:#e34948;--s7:#e87ba4;--s8:#eb6834;--s9:#2a78d6;--s10:#1baf7a;--s11:#eda100;--s12:#008300;--s13:#4a3aa7;--s14:#e34948;--s15:#e87ba4;--s16:#eb6834}
@media (prefers-color-scheme:dark){:root{--surface:#1a1a19;--ink:#fff;--ink2:#c3c2b7;--muted:#898781;--grid:#2c2c2a;--axis:#383835;--s1:#3987e5;--s2:#199e70;--s3:#c98500;--s4:#008300;--s5:#9085e9;--s6:#e66767;--s7:#d55181;--s8:#d95926;--s9:#3987e5;--s10:#199e70;--s11:#c98500;--s12:#008300;--s13:#9085e9;--s14:#e66767;--s15:#d55181;--s16:#d95926}}
text{font-family:system-ui,-apple-system,'Segoe UI',sans-serif}
.t{fill:var(--ink);font-weight:600}.lab{fill:var(--ink2)}.mut{fill:var(--muted)}.val{fill:var(--ink);font-variant-numeric:tabular-nums}
</style><rect width="760" height="678" fill="var(--surface)"/><text x="20" y="26" class="t" font-size="15">⚡ Best quality for least time, per task — unsloth (bubble = output tokens, color = budget)</text><text x="20" y="45" class="mut" font-size="11">x = generation seconds (→ slower) · y = quality % (↑) · bubble = output tokens · color = reasoning budget · UP-and-LEFT wins</text><text x="50" y="66" class="t" font-size="12">deep-equal  (sonnet)</text><line x1="56" y1="200.0" x2="344" y2="200.0" stroke="var(--grid)" stroke-width="1"/><text x="50" y="204.0" text-anchor="end" class="mut" font-size="9">75</text><line x1="56" y1="174.8" x2="344" y2="174.8" stroke="var(--grid)" stroke-width="1"/><text x="50" y="178.8" text-anchor="end" class="mut" font-size="9">80</text><line x1="56" y1="149.6" x2="344" y2="149.6" stroke="var(--grid)" stroke-width="1"/><text x="50" y="153.6" text-anchor="end" class="mut" font-size="9">85</text><line x1="56" y1="124.4" x2="344" y2="124.4" stroke="var(--grid)" stroke-width="1"/><text x="50" y="128.4" text-anchor="end" class="mut" font-size="9">90</text><line x1="56" y1="99.2" x2="344" y2="99.2" stroke="var(--grid)" stroke-width="1"/><text x="50" y="103.2" text-anchor="end" class="mut" font-size="9">95</text><line x1="56" y1="74.0" x2="344" y2="74.0" stroke="var(--grid)" stroke-width="1"/><text x="50" y="78.0" text-anchor="end" class="mut" font-size="9">100</text><text x="67.9" y="214" text-anchor="middle" class="mut" font-size="9">34s</text><text x="301.7" y="214" text-anchor="middle" class="mut" font-size="9">102s</text><circle cx="67.9" cy="169.5" r="8.6" fill="var(--s1)" fill-opacity="0.78" stroke="var(--surface)" stroke-width="1.5"/><circle cx="128.3" cy="116.1" r="9.7" fill="var(--s3)" fill-opacity="0.78" stroke="var(--surface)" stroke-width="1.5"/><circle cx="253.6" cy="116.1" r="11.4" fill="var(--s6)" fill-opacity="0.78" stroke="var(--surface)" stroke-width="1.5"/><circle cx="167.8" cy="142.5" r="9.6" fill="var(--s1)" fill-opacity="0.78" stroke="var(--surface)" stroke-width="1.5"/><circle cx="246.5" cy="133.0" r="10.6" fill="var(--s3)" fill-opacity="0.78" stroke="var(--surface)" stroke-width="1.5"/><circle cx="301.7" cy="173.8" r="11.2" fill="var(--s6)" fill-opacity="0.78" stroke="var(--surface)" stroke-width="1.5"/><circle cx="241.7" cy="121.4" r="9.9" fill="var(--s3)" fill-opacity="0.78" stroke="var(--surface)" stroke-width="1.5"/><text x="139.3" y="120.1" text-anchor="start" class="val" font-size="10">★ un·64k·b2k·f16</text><text x="430" y="66" class="t" font-size="12">store-remove  (sonnet)</text><line x1="436" y1="200.0" x2="724" y2="200.0" stroke="var(--grid)" stroke-width="1"/><text x="430" y="204.0" text-anchor="end" class="mut" font-size="9">75</text><line x1="436" y1="174.8" x2="724" y2="174.8" stroke="var(--grid)" stroke-width="1"/><text x="430" y="178.8" text-anchor="end" class="mut" font-size="9">80</text><line x1="436" y1="149.6" x2="724" y2="149.6" stroke="var(--grid)" stroke-width="1"/><text x="430" y="153.6" text-anchor="end" class="mut" font-size="9">85</text><line x1="436" y1="124.4" x2="724" y2="124.4" stroke="var(--grid)" stroke-width="1"/><text x="430" y="128.4" text-anchor="end" class="mut" font-size="9">90</text><line x1="436" y1="99.2" x2="724" y2="99.2" stroke="var(--grid)" stroke-width="1"/><text x="430" y="103.2" text-anchor="end" class="mut" font-size="9">95</text><line x1="436" y1="74.0" x2="724" y2="74.0" stroke="var(--grid)" stroke-width="1"/><text x="430" y="78.0" text-anchor="end" class="mut" font-size="9">100</text><text x="446.0" y="214" text-anchor="middle" class="mut" font-size="9">32s</text><text x="683.5" y="214" text-anchor="middle" class="mut" font-size="9">108s</text><circle cx="446.0" cy="124.4" r="8.5" fill="var(--s1)" fill-opacity="0.78" stroke="var(--surface)" stroke-width="1.5"/><circle cx="500.8" cy="126.4" r="9.6" fill="var(--s3)" fill-opacity="0.78" stroke="var(--surface)" stroke-width="1.5"/><circle cx="580.2" cy="126.4" r="10.9" fill="var(--s6)" fill-opacity="0.78" stroke="var(--surface)" stroke-width="1.5"/><circle cx="479.1" cy="162.2" r="8.5" fill="var(--s1)" fill-opacity="0.78" stroke="var(--surface)" stroke-width="1.5"/><circle cx="545.0" cy="129.7" r="9.6" fill="var(--s3)" fill-opacity="0.78" stroke="var(--surface)" stroke-width="1.5"/><circle cx="683.5" cy="166.5" r="11.3" fill="var(--s6)" fill-opacity="0.78" stroke="var(--surface)" stroke-width="1.5"/><circle cx="590.5" cy="116.1" r="9.6" fill="var(--s3)" fill-opacity="0.78" stroke="var(--surface)" stroke-width="1.5"/><text x="579.5" y="120.1" text-anchor="end" class="val" font-size="10">★ un·128k·b2k·q8_0</text><text x="50" y="266" class="t" font-size="12">rate-limiter  (sonnet)</text><line x1="56" y1="400.0" x2="344" y2="400.0" stroke="var(--grid)" stroke-width="1"/><text x="50" y="404.0" text-anchor="end" class="mut" font-size="9">55</text><line x1="56" y1="365.9" x2="344" y2="365.9" stroke="var(--grid)" stroke-width="1"/><text x="50" y="369.9" text-anchor="end" class="mut" font-size="9">65</text><line x1="56" y1="331.9" x2="344" y2="331.9" stroke="var(--grid)" stroke-width="1"/><text x="50" y="335.9" text-anchor="end" class="mut" font-size="9">75</text><line x1="56" y1="297.8" x2="344" y2="297.8" stroke="var(--grid)" stroke-width="1"/><text x="50" y="301.8" text-anchor="end" class="mut" font-size="9">85</text><text x="67.6" y="414" text-anchor="middle" class="mut" font-size="9">39s</text><text x="301.9" y="414" text-anchor="middle" class="mut" font-size="9">117s</text><circle cx="67.6" cy="370.0" r="9.0" fill="var(--s1)" fill-opacity="0.78" stroke="var(--surface)" stroke-width="1.5"/><circle cx="114.3" cy="336.8" r="9.9" fill="var(--s3)" fill-opacity="0.78" stroke="var(--surface)" stroke-width="1.5"/><circle cx="228.7" cy="302.8" r="11.6" fill="var(--s6)" fill-opacity="0.78" stroke="var(--surface)" stroke-width="1.5"/><circle cx="100.8" cy="356.2" r="9.0" fill="var(--s1)" fill-opacity="0.78" stroke="var(--surface)" stroke-width="1.5"/><circle cx="162.3" cy="337.9" r="10.0" fill="var(--s3)" fill-opacity="0.78" stroke="var(--surface)" stroke-width="1.5"/><circle cx="301.9" cy="331.9" r="11.7" fill="var(--s6)" fill-opacity="0.78" stroke="var(--surface)" stroke-width="1.5"/><circle cx="206.6" cy="327.1" r="9.9" fill="var(--s3)" fill-opacity="0.78" stroke="var(--surface)" stroke-width="1.5"/><text x="217.7" y="306.8" text-anchor="end" class="val" font-size="10">★ un·64k·b4k·f16</text><text x="430" y="266" class="t" font-size="12">lru-cache  (sonnet)</text><line x1="436" y1="400.0" x2="724" y2="400.0" stroke="var(--grid)" stroke-width="1"/><text x="430" y="404.0" text-anchor="end" class="mut" font-size="9">35</text><line x1="436" y1="377.9" x2="724" y2="377.9" stroke="var(--grid)" stroke-width="1"/><text x="430" y="381.9" text-anchor="end" class="mut" font-size="9">45</text><line x1="436" y1="355.8" x2="724" y2="355.8" stroke="var(--grid)" stroke-width="1"/><text x="430" y="359.8" text-anchor="end" class="mut" font-size="9">55</text><line x1="436" y1="333.7" x2="724" y2="333.7" stroke="var(--grid)" stroke-width="1"/><text x="430" y="337.7" text-anchor="end" class="mut" font-size="9">65</text><line x1="436" y1="311.6" x2="724" y2="311.6" stroke="var(--grid)" stroke-width="1"/><text x="430" y="315.6" text-anchor="end" class="mut" font-size="9">75</text><line x1="436" y1="289.5" x2="724" y2="289.5" stroke="var(--grid)" stroke-width="1"/><text x="430" y="293.5" text-anchor="end" class="mut" font-size="9">85</text><text x="449.3" y="414" text-anchor="middle" class="mut" font-size="9">49s</text><text x="680.3" y="414" text-anchor="middle" class="mut" font-size="9">134s</text><circle cx="449.3" cy="349.7" r="9.5" fill="var(--s1)" fill-opacity="0.78" stroke="var(--surface)" stroke-width="1.5"/><circle cx="500.4" cy="330.7" r="10.4" fill="var(--s3)" fill-opacity="0.78" stroke="var(--surface)" stroke-width="1.5"/><circle cx="602.8" cy="298.9" r="12.0" fill="var(--s6)" fill-opacity="0.78" stroke="var(--surface)" stroke-width="1.5"/><circle cx="488.6" cy="336.0" r="9.7" fill="var(--s1)" fill-opacity="0.78" stroke="var(--surface)" stroke-width="1.5"/><circle cx="561.4" cy="305.3" r="10.7" fill="var(--s3)" fill-opacity="0.78" stroke="var(--surface)" stroke-width="1.5"/><circle cx="680.3" cy="310.5" r="12.2" fill="var(--s6)" fill-opacity="0.78" stroke="var(--surface)" stroke-width="1.5"/><circle cx="625.9" cy="374.1" r="10.7" fill="var(--s3)" fill-opacity="0.78" stroke="var(--surface)" stroke-width="1.5"/><text x="591.8" y="302.9" text-anchor="end" class="val" font-size="10">★ un·64k·b4k·f16</text><text x="50" y="466" class="t" font-size="12">async-memo  (opus)</text><line x1="56" y1="600.0" x2="344" y2="600.0" stroke="var(--grid)" stroke-width="1"/><text x="50" y="604.0" text-anchor="end" class="mut" font-size="9">45</text><line x1="56" y1="576.7" x2="344" y2="576.7" stroke="var(--grid)" stroke-width="1"/><text x="50" y="580.7" text-anchor="end" class="mut" font-size="9">50</text><line x1="56" y1="553.3" x2="344" y2="553.3" stroke="var(--grid)" stroke-width="1"/><text x="50" y="557.3" text-anchor="end" class="mut" font-size="9">55</text><line x1="56" y1="530.0" x2="344" y2="530.0" stroke="var(--grid)" stroke-width="1"/><text x="50" y="534.0" text-anchor="end" class="mut" font-size="9">60</text><line x1="56" y1="506.7" x2="344" y2="506.7" stroke="var(--grid)" stroke-width="1"/><text x="50" y="510.7" text-anchor="end" class="mut" font-size="9">65</text><line x1="56" y1="483.3" x2="344" y2="483.3" stroke="var(--grid)" stroke-width="1"/><text x="50" y="487.3" text-anchor="end" class="mut" font-size="9">70</text><text x="64.9" y="614" text-anchor="middle" class="mut" font-size="9">29s</text><text x="304.6" y="614" text-anchor="middle" class="mut" font-size="9">108s</text><circle cx="64.9" cy="533.7" r="8.1" fill="var(--s1)" fill-opacity="0.78" stroke="var(--surface)" stroke-width="1.5"/><circle cx="128.9" cy="498.7" r="9.4" fill="var(--s3)" fill-opacity="0.78" stroke="var(--surface)" stroke-width="1.5"/><circle cx="248.2" cy="498.7" r="11.2" fill="var(--s6)" fill-opacity="0.78" stroke="var(--surface)" stroke-width="1.5"/><circle cx="94.1" cy="498.7" r="8.3" fill="var(--s1)" fill-opacity="0.78" stroke="var(--surface)" stroke-width="1.5"/><circle cx="160.5" cy="498.7" r="9.5" fill="var(--s3)" fill-opacity="0.78" stroke="var(--surface)" stroke-width="1.5"/><circle cx="304.6" cy="498.7" r="11.3" fill="var(--s6)" fill-opacity="0.78" stroke="var(--surface)" stroke-width="1.5"/><circle cx="203.4" cy="498.7" r="9.4" fill="var(--s3)" fill-opacity="0.78" stroke="var(--surface)" stroke-width="1.5"/><text x="105.1" y="502.7" text-anchor="start" class="val" font-size="10">★ un·128k·b1k·f16</text><text x="430" y="466" class="t" font-size="12">expr-eval  (opus)</text><line x1="436" y1="600.0" x2="724" y2="600.0" stroke="var(--grid)" stroke-width="1"/><text x="430" y="604.0" text-anchor="end" class="mut" font-size="9">35</text><line x1="436" y1="565.9" x2="724" y2="565.9" stroke="var(--grid)" stroke-width="1"/><text x="430" y="569.9" text-anchor="end" class="mut" font-size="9">45</text><line x1="436" y1="531.9" x2="724" y2="531.9" stroke="var(--grid)" stroke-width="1"/><text x="430" y="535.9" text-anchor="end" class="mut" font-size="9">55</text><line x1="436" y1="497.8" x2="724" y2="497.8" stroke="var(--grid)" stroke-width="1"/><text x="430" y="501.8" text-anchor="end" class="mut" font-size="9">65</text><text x="445.9" y="614" text-anchor="middle" class="mut" font-size="9">47s</text><text x="683.6" y="614" text-anchor="middle" class="mut" font-size="9">159s</text><circle cx="445.9" cy="532.4" r="9.4" fill="var(--s1)" fill-opacity="0.78" stroke="var(--surface)" stroke-width="1.5"/><circle cx="484.4" cy="511.8" r="10.4" fill="var(--s3)" fill-opacity="0.78" stroke="var(--surface)" stroke-width="1.5"/><circle cx="558.7" cy="500.6" r="11.9" fill="var(--s6)" fill-opacity="0.78" stroke="var(--surface)" stroke-width="1.5"/><circle cx="475.8" cy="579.2" r="9.5" fill="var(--s1)" fill-opacity="0.78" stroke="var(--surface)" stroke-width="1.5"/><circle cx="683.6" cy="564.8" r="13.0" fill="var(--s3)" fill-opacity="0.78" stroke="var(--surface)" stroke-width="1.5"/><circle cx="609.0" cy="523.0" r="12.0" fill="var(--s6)" fill-opacity="0.78" stroke="var(--surface)" stroke-width="1.5"/><circle cx="582.3" cy="525.4" r="10.7" fill="var(--s3)" fill-opacity="0.78" stroke="var(--surface)" stroke-width="1.5"/><text x="569.7" y="504.6" text-anchor="start" class="val" font-size="10">★ un·64k·b4k·f16</text></svg>